<svg width="70" height="70" viewBox="0 0 70 70" fill="none" xmlns="http://www.w3.org/2000/svg">
<circle cx="35" cy="35" r="33" stroke="#2E2E2E" stroke-width="4"/>
<path d="M46 65C42.4 67.8 29 68 24 65C25.1667 65 27.5 64.5 27.5 63.5V57.5C26 57.5 19.4212 59.5529 17 53.5C16 51 14.5 49 13 48.5C12.5 48.5 11.5 47 13.5 47C13.5 47 16.277 47.0782 17.5 49C20.9694 54.452 22.9649 54.0083 27.3826 53.0261L27.5 53C27.5 52 28 49.5 29.5 48.5C20 48.5 15.5 42.5 15.5 33.5C15.5 29.5 17 26.5 18.5 25C17.5 21.5 18 18.5 19 17C21.5 17 24 17.5 27 20C32.5 18.5 37 18.5 43 20C46 17.5 48 17 51 17C51.8333 18.3333 52.5 22 51.5 25C53 26.5 54.1666 28.5 54.5 33.5C55 41 51 48 40.5 48.5C41.7 48.9 42.5 51.5 42.5 53V63.5C42.5 64.7 44.8333 65 46 65Z" fill="#2E2E2E"/>
</svg>
