<svg width="30" height="36" viewBox="0 0 30 36" fill="none" xmlns="http://www.w3.org/2000/svg">
<path d="M23.9334 34.439C21.3764 36.448 11.8589 36.5915 8.30758 34.439C9.13622 34.439 10.7935 34.0803 10.7935 33.3628V29.0579C9.72812 29.0579 5.0554 30.5309 3.33574 26.188C2.62547 24.3943 1.56009 22.9594 0.494679 22.6006C0.139563 22.6006 -0.570719 21.5244 0.849807 21.5244C0.849807 21.5244 2.82225 21.5805 3.69087 22.9594C6.15507 26.871 7.57241 26.5527 10.7101 25.848L10.7935 25.8293C10.7935 25.1118 11.1486 23.3181 12.214 22.6006C5.46653 22.6006 2.27034 18.2957 2.27034 11.8384C2.27034 8.9685 3.33574 6.81608 4.40113 5.73984C3.69087 3.22867 4.046 1.07625 4.75627 0C6.53193 1.87222e-05 8.30759 0.358769 10.4384 2.15244C14.3448 1.07624 17.541 1.07624 21.8026 2.15244C23.9334 0.35874 25.3539 -2.87899e-05 27.4847 0C28.0766 0.956629 28.5501 3.5874 27.8399 5.73984C28.9053 6.81606 29.7339 8.25101 29.9706 11.8384C30.3258 17.2195 27.4847 22.2419 20.0269 22.6006C20.8792 22.8876 21.4475 24.753 21.4475 25.8293V33.3628C21.4475 34.2238 23.1047 34.439 23.9334 34.439Z" fill="#F5F5F5"/>
</svg>
