<svg width="120" height="37" viewBox="0 0 120 37" fill="none" xmlns="http://www.w3.org/2000/svg">
<path d="M15.0508 32.5054L0.241211 20.0249L15.0508 7.56641L18.4785 11.0381L7.58008 19.981L18.4785 29.0337L15.0508 32.5054ZM29.5308 36.7241H24.3232L39.6602 0.952637H44.8896L29.5308 36.7241ZM64.3574 32L56.1177 20.8379V32H50.7563V0.952637H56.1177V19.124L63.918 9.67578H70.6196L61.5669 19.8491L71.3667 32H64.3574ZM93.6909 25.4302C93.6909 26.7046 93.4053 27.7959 92.834 28.7041C92.2773 29.5977 91.5303 30.3301 90.5928 30.9014C89.6699 31.458 88.6152 31.8608 87.4287 32.1099C86.2568 32.3735 85.0557 32.5054 83.8252 32.5054C82.1846 32.5054 80.7051 32.4248 79.3867 32.2637C78.0684 32.1172 76.8232 31.8975 75.6514 31.6045V26.7705C77.0283 27.3418 78.3979 27.7593 79.7603 28.0229C81.1372 28.272 82.4336 28.3965 83.6494 28.3965C85.0557 28.3965 86.103 28.1768 86.7915 27.7373C87.4946 27.2832 87.8462 26.6973 87.8462 25.9795C87.8462 25.6426 87.7729 25.335 87.6265 25.0566C87.48 24.7783 87.2017 24.5146 86.7915 24.2656C86.396 24.002 85.832 23.7383 85.0996 23.4746C84.3672 23.1963 83.4077 22.8887 82.2212 22.5518C81.1226 22.2441 80.1558 21.8999 79.3208 21.519C78.5005 21.1235 77.8193 20.6621 77.2773 20.1348C76.7354 19.6074 76.3252 18.9995 76.0469 18.311C75.7832 17.6079 75.6514 16.7876 75.6514 15.8501C75.6514 14.9419 75.8564 14.085 76.2666 13.2793C76.6768 12.4736 77.2847 11.7705 78.0903 11.1699C78.9106 10.5547 79.9287 10.0713 81.1445 9.71973C82.3604 9.36816 83.7812 9.19238 85.4072 9.19238C86.8135 9.19238 88.0586 9.26562 89.1426 9.41211C90.2266 9.55859 91.186 9.71973 92.021 9.89551V14.2681C90.7466 13.8579 89.5454 13.5723 88.4175 13.4111C87.3042 13.2354 86.1982 13.1475 85.0996 13.1475C84.001 13.1475 83.1147 13.3452 82.4409 13.7407C81.7817 14.1362 81.4521 14.6855 81.4521 15.3887C81.4521 15.7256 81.5181 16.0259 81.6499 16.2896C81.7817 16.5532 82.0381 16.8096 82.4189 17.0586C82.8145 17.3076 83.3564 17.5713 84.0449 17.8496C84.748 18.1133 85.6709 18.4062 86.8135 18.7285C88.1025 19.0947 89.1865 19.4902 90.0654 19.915C90.9443 20.3252 91.6475 20.7939 92.1748 21.3213C92.7168 21.8486 93.105 22.4492 93.3394 23.123C93.5737 23.7969 93.6909 24.5659 93.6909 25.4302ZM104.655 7.56641L119.465 20.0249L104.655 32.5054L101.25 29.0337L112.126 20.0688L101.25 11.0381L104.655 7.56641Z" fill="#F5F5F5"/>
</svg>
