<svg width="110" height="110" viewBox="0 0 110 110" fill="none" xmlns="http://www.w3.org/2000/svg">
<path fill-rule="evenodd" clip-rule="evenodd" d="M77 0.5C82.3333 1.66667 93 7.3 93 20.5C93 28 91 32 84 38C90 43 93 46.5 93 56.5C93 68.5 81 75.5 72 75.5C69 75.5 63.5 74.5 58.5 70.5V91.5C58 100.5 50.5 109.5 37.5 109.5C23.5 109.5 16.5 99.5 16.5 90C16.5 81 22 75 26 72C23 69.5 16.5 65.1 16.5 55.5C16.5 45.9 22.8333 39.8333 26 38C22.8333 36 16.5 30.5 16.5 20.5C16.5 10.5 26.5 0.5 32 0.5H77ZM74.5 6.5H58.5V34H74.5C78.5 34 86.5 30.5 86.5 20.5C86.5 11.5 78.5 6.5 74.5 6.5ZM51.5 34V6.5H35C31 6.5 23.5 10.9 23.5 20.5C23.5 30.1 31 34 35 34H51.5ZM51.5 68.5V41H35C31 41 23.5 46 23.5 55.5C23.5 63.9 30.5 68.5 35 68.5H51.5ZM51.5 91.5V75.5H35C28.5 75.5 23 82.5 23 89.5C23 94.5 26 103 37.5 103C46.7 103 50.6667 95.3333 51.5 91.5ZM86.5 54.5C86.5 46.5 80 41 72 41C64 41 58.5 47 58.5 54.5C58.5 61.5 63 68.5 72 68.5C81 68.5 86.5 62.5 86.5 54.5Z" fill="#F5F5F5"/>
</svg>
