<svg width="110" height="110" viewBox="0 0 110 110" fill="none" xmlns="http://www.w3.org/2000/svg">
<path d="M59.5 2.99998L107.5 51.5C110 54 110 57 107.5 59.5L60.5 106.5C57.834 109.166 53.5 109.5 50.5 106.5C46.6948 102.695 17.5 73.6666 3.50001 59.5C1.02946 57 1.34303 53.6571 3.50001 51.5C6.5066 48.4933 26.3333 28.1667 36 18.5L48 30.5C46.5 34 47.5 39 52.5 41V70.5C47.5 73 46.3333 79 49 83C52.6667 88.5 61.2812 87 63 81.5C65.5 73.5 59.5 71 59.5 71V42L70.5 53C69 57 70 63.375 77.5 64C84.5 64.5833 88.114 56.921 84.5 51.5C80.8859 46.0789 74.5 48 74.5 48L63.5 36.5C65 30.5 61 24 53 26L40.5 13.5L51 2.99998C53.5 0.50001 57 0.500002 59.5 2.99998Z" fill="#2E2E2E"/>
</svg>
