<svg width="110" height="110" viewBox="0 0 110 110" fill="none" xmlns="http://www.w3.org/2000/svg">
<path d="M107 32C99.0001 28.8428 85.8001 26 75.0001 32C59.5001 40.6111 63.2824 58.3912 73.5001 63.5C76.8997 65.1998 79.8948 66.3795 82.3675 67.3535C87.1683 69.2445 90.0001 70.3598 90.0001 73C90.0001 76 85.0001 79.5 69.0001 73C68.9161 72.9659 68.8266 72.9268 68.7334 72.8861C67.936 72.538 66.8582 72.0675 66.5001 73.5C66.1001 75.1 64.3334 82.5 63.5001 86C63.3493 86.633 63.5882 87.2465 64.0001 87.5C70.5001 91.5 76.8759 91.5 86.0001 91.5C96.9863 91.5 109.968 85.515 110 72.5488V72.4434C109.971 59.0111 99.6248 55.0452 94.1553 52.9487C93.7399 52.7894 93.3526 52.641 93.0001 52.5C92.0901 52.136 91.2298 51.8217 90.4312 51.5299C86.842 50.2186 84.5001 49.363 84.5001 46.5C84.5001 43 90.0001 43 93.5001 43.5C95.0667 43.7238 98.2565 44.8665 100.513 45.6749C101.822 46.1436 102.817 46.5 103 46.5C103.5 46.5 103.833 46.5 104 46C104.4 44.8 106.5 37.1667 107.5 33.5C107.5 33.0658 107.4 32.1578 107 32Z" fill="#F5F5F5"/>
<path fill-rule="evenodd" clip-rule="evenodd" d="M6.18136e-05 9.49998V89.8195C6.18136e-05 90.213 0.200062 91 1.00006 91H19.0001C19.4273 91.0464 20.3036 90.8752 20.3909 89.8195C20.4782 88.7639 20.4273 70.8333 20.3909 62C36.5001 62 60.5001 59.5 60.5001 33.5C60.5001 6.99998 29.7337 6.99998 29.5001 6.99998C16.5001 7 5.50006 7.99997 1.00006 8.49997C0.00617635 8.61041 -2.96795e-05 8.99997 6.18136e-05 9.49998ZM20.3909 45.5V23.5C21.0701 23.5 21.8263 23.4774 22.6356 23.4532C29.4419 23.25 40.0001 22.9346 40.0001 35C40.0001 45.8 26.9273 46.5 20.3909 45.5Z" fill="#F5F5F5"/>
<path fill-rule="evenodd" clip-rule="evenodd" d="M110 72.5L110 72.5488V72.4434L110 72.5Z" fill="#F5F5F5"/>
</svg>
