<svg width="110" height="110" viewBox="0 0 110 110" fill="none" xmlns="http://www.w3.org/2000/svg">
<path d="M32.5 23H46.5V78.5C45.5 100.5 14.5 104.5 4.5 83.5L16 76.5C17 78.5 18 80.2857 20 82C23.5 85 31.1275 84.8917 32.5 77V23Z" fill="#F5F5F5"/>
<path d="M98.5 34L88 41.5C83 32 72 34 72 41.5C72 53 102.5 52.5 102.5 75C102.5 90 93.5 96.5 82 97.5C70.5 98.5 60 92 54 82L65.5 75C67.1667 78.5 72.5 84 79.5 84C85.5 84 89 80 89 76.5C89 63 58.5 67.5 58.5 41.5C58.5 25.5 74 22 78.5 22C83 22 90.5 21.5 98.5 34Z" fill="#F5F5F5"/>
</svg>
